<mxfile host="app.diagrams.net" modified="2022-02-18T04:29:27.986Z" agent="5.0 (Windows NT 10.0; Win64; x64) AppleWebKit/537.36 (KHTML, like Gecko) Chrome/98.0.4758.82 Safari/537.36" etag="0U9kxc13vLVJ9J414gjv" version="16.5.6" type="github">
  <diagram id="prtHgNgQTEPvFCAcTncT" name="Page-1">
    <mxGraphModel dx="1422" dy="786" grid="1" gridSize="10" guides="1" tooltips="1" connect="1" arrows="1" fold="1" page="1" pageScale="1" pageWidth="827" pageHeight="1169" math="0" shadow="0">
      <root>
        <mxCell id="0" />
        <mxCell id="1" parent="0" />
        <mxCell id="6LIiOqPhgxA0wCNoaxhD-3" style="edgeStyle=orthogonalEdgeStyle;rounded=0;orthogonalLoop=1;jettySize=auto;html=1;entryX=0;entryY=0.5;entryDx=0;entryDy=0;exitX=1;exitY=0.25;exitDx=0;exitDy=0;" edge="1" parent="1" source="dNxyNK7c78bLwvsdeMH5-12" target="6LIiOqPhgxA0wCNoaxhD-4">
          <mxGeometry relative="1" as="geometry">
            <mxPoint x="220" y="140" as="sourcePoint" />
            <mxPoint x="290.84000000000015" y="89.58000000000004" as="targetPoint" />
            <Array as="points">
              <mxPoint x="240" y="140" />
              <mxPoint x="240" y="100" />
            </Array>
          </mxGeometry>
        </mxCell>
        <mxCell id="6LIiOqPhgxA0wCNoaxhD-28" style="edgeStyle=orthogonalEdgeStyle;rounded=0;orthogonalLoop=1;jettySize=auto;html=1;exitX=1;exitY=0.5;exitDx=0;exitDy=0;entryX=0;entryY=0.5;entryDx=0;entryDy=0;endArrow=classic;endFill=1;endSize=6;" edge="1" parent="1" source="dNxyNK7c78bLwvsdeMH5-12" target="6LIiOqPhgxA0wCNoaxhD-27">
          <mxGeometry relative="1" as="geometry">
            <Array as="points">
              <mxPoint x="240" y="160" />
              <mxPoint x="240" y="300" />
            </Array>
          </mxGeometry>
        </mxCell>
        <mxCell id="6LIiOqPhgxA0wCNoaxhD-37" style="edgeStyle=orthogonalEdgeStyle;rounded=0;orthogonalLoop=1;jettySize=auto;html=1;entryX=0;entryY=0.5;entryDx=0;entryDy=0;endArrow=classic;endFill=1;endSize=6;exitX=1;exitY=0.75;exitDx=0;exitDy=0;" edge="1" parent="1" source="dNxyNK7c78bLwvsdeMH5-12" target="6LIiOqPhgxA0wCNoaxhD-34">
          <mxGeometry relative="1" as="geometry">
            <Array as="points">
              <mxPoint x="230" y="180" />
              <mxPoint x="230" y="500" />
            </Array>
          </mxGeometry>
        </mxCell>
        <UserObject label="Usuario" name="Tessa Miller" position="CFO" location="Office 1" email="me@example.com" placeholders="1" link="https://www.draw.io" id="dNxyNK7c78bLwvsdeMH5-12">
          <mxCell style="label;image=https://cdn3.iconfinder.com/data/icons/user-avatars-1/512/users-3-128.png;whiteSpace=wrap;html=1;rounded=0;glass=0;treeMoving=1;treeFolding=1;" parent="1" vertex="1">
            <mxGeometry x="80" y="120" width="120" height="80" as="geometry" />
          </mxCell>
        </UserObject>
        <mxCell id="6LIiOqPhgxA0wCNoaxhD-1" value="Lisp Operar Aritmética" style="swimlane;" vertex="1" parent="1">
          <mxGeometry x="280" y="40" width="280" height="200" as="geometry" />
        </mxCell>
        <mxCell id="6LIiOqPhgxA0wCNoaxhD-4" value="Operación Artimética" style="ellipse;whiteSpace=wrap;html=1;" vertex="1" parent="6LIiOqPhgxA0wCNoaxhD-1">
          <mxGeometry x="20" y="40" width="140" height="40" as="geometry" />
        </mxCell>
        <mxCell id="6LIiOqPhgxA0wCNoaxhD-6" value="sum" style="ellipse;whiteSpace=wrap;html=1;" vertex="1" parent="6LIiOqPhgxA0wCNoaxhD-1">
          <mxGeometry x="124" y="80" width="36" height="20" as="geometry" />
        </mxCell>
        <mxCell id="6LIiOqPhgxA0wCNoaxhD-9" value="mult" style="ellipse;whiteSpace=wrap;html=1;" vertex="1" parent="6LIiOqPhgxA0wCNoaxhD-1">
          <mxGeometry x="124" y="140" width="36" height="20" as="geometry" />
        </mxCell>
        <mxCell id="6LIiOqPhgxA0wCNoaxhD-8" value="div" style="ellipse;whiteSpace=wrap;html=1;" vertex="1" parent="6LIiOqPhgxA0wCNoaxhD-1">
          <mxGeometry x="124" y="120" width="36" height="20" as="geometry" />
        </mxCell>
        <mxCell id="6LIiOqPhgxA0wCNoaxhD-7" value="rest" style="ellipse;whiteSpace=wrap;html=1;" vertex="1" parent="6LIiOqPhgxA0wCNoaxhD-1">
          <mxGeometry x="124" y="100" width="36" height="20" as="geometry" />
        </mxCell>
        <mxCell id="6LIiOqPhgxA0wCNoaxhD-14" value="Include" style="endArrow=block;endSize=9;endFill=0;html=1;rounded=0;exitX=0.5;exitY=1;exitDx=0;exitDy=0;" edge="1" parent="6LIiOqPhgxA0wCNoaxhD-1" source="6LIiOqPhgxA0wCNoaxhD-4">
          <mxGeometry x="-0.3171" y="-5" width="160" relative="1" as="geometry">
            <mxPoint x="90" y="245.33999999999992" as="sourcePoint" />
            <mxPoint x="120" y="120" as="targetPoint" />
            <mxPoint as="offset" />
          </mxGeometry>
        </mxCell>
        <mxCell id="6LIiOqPhgxA0wCNoaxhD-39" value="Extends" style="endArrow=block;endSize=9;endFill=0;html=1;rounded=0;exitX=0;exitY=1;exitDx=0;exitDy=0;entryX=0.5;entryY=0;entryDx=0;entryDy=0;" edge="1" parent="6LIiOqPhgxA0wCNoaxhD-1" target="6LIiOqPhgxA0wCNoaxhD-40" source="6LIiOqPhgxA0wCNoaxhD-4">
          <mxGeometry x="-0.3171" y="-5" width="160" relative="1" as="geometry">
            <mxPoint x="20" y="89.99999999999989" as="sourcePoint" />
            <mxPoint x="-230" y="-110" as="targetPoint" />
            <mxPoint as="offset" />
          </mxGeometry>
        </mxCell>
        <mxCell id="6LIiOqPhgxA0wCNoaxhD-40" value="Reader&lt;br&gt;PredicatorVerificator&lt;br&gt;Interpreter" style="ellipse;whiteSpace=wrap;html=1;" vertex="1" parent="6LIiOqPhgxA0wCNoaxhD-1">
          <mxGeometry x="4" y="130" width="120" height="60" as="geometry" />
        </mxCell>
        <UserObject label="Usuario" name="Tessa Miller" position="CFO" location="Office 1" email="me@example.com" placeholders="1" link="https://www.draw.io" id="6LIiOqPhgxA0wCNoaxhD-15">
          <mxCell style="label;image=https://cdn3.iconfinder.com/data/icons/user-avatars-1/512/users-3-128.png;whiteSpace=wrap;html=1;rounded=0;glass=0;treeMoving=1;treeFolding=1;" vertex="1" parent="1">
            <mxGeometry x="640" y="110" width="120" height="80" as="geometry" />
          </mxCell>
        </UserObject>
        <mxCell id="6LIiOqPhgxA0wCNoaxhD-16" style="edgeStyle=orthogonalEdgeStyle;rounded=0;orthogonalLoop=1;jettySize=auto;html=1;exitX=1;exitY=0.5;exitDx=0;exitDy=0;entryX=0;entryY=0.25;entryDx=0;entryDy=0;endSize=6;" edge="1" parent="1" source="6LIiOqPhgxA0wCNoaxhD-6" target="6LIiOqPhgxA0wCNoaxhD-15">
          <mxGeometry relative="1" as="geometry">
            <Array as="points">
              <mxPoint x="480" y="130" />
              <mxPoint x="480" y="90" />
              <mxPoint x="600" y="90" />
              <mxPoint x="600" y="130" />
            </Array>
          </mxGeometry>
        </mxCell>
        <mxCell id="6LIiOqPhgxA0wCNoaxhD-17" style="edgeStyle=orthogonalEdgeStyle;rounded=0;orthogonalLoop=1;jettySize=auto;html=1;exitX=1;exitY=0.5;exitDx=0;exitDy=0;endSize=9;endArrow=none;endFill=0;" edge="1" parent="1" source="6LIiOqPhgxA0wCNoaxhD-7">
          <mxGeometry relative="1" as="geometry">
            <mxPoint x="500" y="90" as="targetPoint" />
          </mxGeometry>
        </mxCell>
        <mxCell id="6LIiOqPhgxA0wCNoaxhD-18" style="edgeStyle=orthogonalEdgeStyle;rounded=0;orthogonalLoop=1;jettySize=auto;html=1;exitX=1;exitY=0.5;exitDx=0;exitDy=0;endSize=9;endArrow=none;endFill=0;" edge="1" parent="1" source="6LIiOqPhgxA0wCNoaxhD-8">
          <mxGeometry relative="1" as="geometry">
            <mxPoint x="520" y="90" as="targetPoint" />
          </mxGeometry>
        </mxCell>
        <mxCell id="6LIiOqPhgxA0wCNoaxhD-19" style="edgeStyle=orthogonalEdgeStyle;rounded=0;orthogonalLoop=1;jettySize=auto;html=1;exitX=1;exitY=0.5;exitDx=0;exitDy=0;endSize=9;endArrow=none;endFill=0;" edge="1" parent="1" source="6LIiOqPhgxA0wCNoaxhD-9">
          <mxGeometry relative="1" as="geometry">
            <mxPoint x="540" y="90" as="targetPoint" />
          </mxGeometry>
        </mxCell>
        <mxCell id="6LIiOqPhgxA0wCNoaxhD-20" value="Lisp Crear Variable" style="swimlane;" vertex="1" parent="1">
          <mxGeometry x="280" y="240" width="200" height="200" as="geometry" />
        </mxCell>
        <mxCell id="6LIiOqPhgxA0wCNoaxhD-27" value="VariableStorage" style="ellipse;whiteSpace=wrap;html=1;" vertex="1" parent="6LIiOqPhgxA0wCNoaxhD-20">
          <mxGeometry x="20" y="40" width="140" height="40" as="geometry" />
        </mxCell>
        <mxCell id="6LIiOqPhgxA0wCNoaxhD-29" value="Extends" style="endArrow=block;endSize=9;endFill=0;html=1;rounded=0;exitX=0.5;exitY=1;exitDx=0;exitDy=0;entryX=0.5;entryY=0;entryDx=0;entryDy=0;" edge="1" parent="6LIiOqPhgxA0wCNoaxhD-20" source="6LIiOqPhgxA0wCNoaxhD-27" target="6LIiOqPhgxA0wCNoaxhD-30">
          <mxGeometry x="-0.3171" y="-5" width="160" relative="1" as="geometry">
            <mxPoint x="80" y="110" as="sourcePoint" />
            <mxPoint x="120" y="120" as="targetPoint" />
            <mxPoint as="offset" />
          </mxGeometry>
        </mxCell>
        <mxCell id="6LIiOqPhgxA0wCNoaxhD-30" value="List" style="ellipse;whiteSpace=wrap;html=1;" vertex="1" parent="6LIiOqPhgxA0wCNoaxhD-20">
          <mxGeometry x="110" y="120" width="40" height="20" as="geometry" />
        </mxCell>
        <mxCell id="6LIiOqPhgxA0wCNoaxhD-41" value="Reader&lt;br&gt;PredicatorVerificator&lt;br&gt;Interpreter" style="ellipse;whiteSpace=wrap;html=1;" vertex="1" parent="6LIiOqPhgxA0wCNoaxhD-20">
          <mxGeometry x="10" y="130" width="120" height="60" as="geometry" />
        </mxCell>
        <mxCell id="6LIiOqPhgxA0wCNoaxhD-43" value="Extends" style="endArrow=block;endSize=9;endFill=0;html=1;rounded=0;exitX=0;exitY=1;exitDx=0;exitDy=0;entryX=0.5;entryY=0;entryDx=0;entryDy=0;" edge="1" parent="6LIiOqPhgxA0wCNoaxhD-20" source="6LIiOqPhgxA0wCNoaxhD-27" target="6LIiOqPhgxA0wCNoaxhD-41">
          <mxGeometry x="-0.3171" y="-5" width="160" relative="1" as="geometry">
            <mxPoint x="240" y="129.9999999999999" as="sourcePoint" />
            <mxPoint x="280" y="169.9999999999999" as="targetPoint" />
            <mxPoint as="offset" />
          </mxGeometry>
        </mxCell>
        <mxCell id="6LIiOqPhgxA0wCNoaxhD-31" style="edgeStyle=orthogonalEdgeStyle;rounded=0;orthogonalLoop=1;jettySize=auto;html=1;entryX=0;entryY=0.5;entryDx=0;entryDy=0;endArrow=classic;endFill=1;endSize=6;" edge="1" parent="1" source="6LIiOqPhgxA0wCNoaxhD-27" target="6LIiOqPhgxA0wCNoaxhD-15">
          <mxGeometry relative="1" as="geometry">
            <Array as="points">
              <mxPoint x="600" y="300" />
              <mxPoint x="600" y="150" />
            </Array>
          </mxGeometry>
        </mxCell>
        <mxCell id="6LIiOqPhgxA0wCNoaxhD-33" value="Lisp Crear Función" style="swimlane;" vertex="1" parent="1">
          <mxGeometry x="280" y="440" width="200" height="200" as="geometry" />
        </mxCell>
        <mxCell id="6LIiOqPhgxA0wCNoaxhD-34" value="FunctionStorage" style="ellipse;whiteSpace=wrap;html=1;" vertex="1" parent="6LIiOqPhgxA0wCNoaxhD-33">
          <mxGeometry x="20" y="40" width="140" height="40" as="geometry" />
        </mxCell>
        <mxCell id="6LIiOqPhgxA0wCNoaxhD-35" value="Extends" style="endArrow=block;endSize=9;endFill=0;html=1;rounded=0;exitX=0.5;exitY=1;exitDx=0;exitDy=0;entryX=0.5;entryY=0;entryDx=0;entryDy=0;" edge="1" parent="6LIiOqPhgxA0wCNoaxhD-33" source="6LIiOqPhgxA0wCNoaxhD-34" target="6LIiOqPhgxA0wCNoaxhD-36">
          <mxGeometry x="-0.3171" y="-5" width="160" relative="1" as="geometry">
            <mxPoint x="80" y="110" as="sourcePoint" />
            <mxPoint x="120" y="120" as="targetPoint" />
            <mxPoint as="offset" />
          </mxGeometry>
        </mxCell>
        <mxCell id="6LIiOqPhgxA0wCNoaxhD-36" value="List" style="ellipse;whiteSpace=wrap;html=1;" vertex="1" parent="6LIiOqPhgxA0wCNoaxhD-33">
          <mxGeometry x="110" y="120" width="40" height="20" as="geometry" />
        </mxCell>
        <mxCell id="6LIiOqPhgxA0wCNoaxhD-38" style="edgeStyle=orthogonalEdgeStyle;rounded=0;orthogonalLoop=1;jettySize=auto;html=1;entryX=0;entryY=0.75;entryDx=0;entryDy=0;endArrow=classic;endFill=1;endSize=6;" edge="1" parent="1" source="6LIiOqPhgxA0wCNoaxhD-34" target="6LIiOqPhgxA0wCNoaxhD-15">
          <mxGeometry relative="1" as="geometry">
            <Array as="points">
              <mxPoint x="610" y="500" />
              <mxPoint x="610" y="170" />
            </Array>
          </mxGeometry>
        </mxCell>
        <mxCell id="6LIiOqPhgxA0wCNoaxhD-44" value="Reader&lt;br&gt;PredicatorVerificator&lt;br&gt;Interpreter" style="ellipse;whiteSpace=wrap;html=1;" vertex="1" parent="1">
          <mxGeometry x="290" y="569.9999999999999" width="120" height="60" as="geometry" />
        </mxCell>
        <mxCell id="6LIiOqPhgxA0wCNoaxhD-45" value="Extends" style="endArrow=block;endSize=9;endFill=0;html=1;rounded=0;exitX=0;exitY=1;exitDx=0;exitDy=0;entryX=0.5;entryY=0;entryDx=0;entryDy=0;" edge="1" parent="1" target="6LIiOqPhgxA0wCNoaxhD-44" source="6LIiOqPhgxA0wCNoaxhD-34">
          <mxGeometry x="-0.3171" y="-5" width="160" relative="1" as="geometry">
            <mxPoint x="320.62489181450655" y="519.9970112611811" as="sourcePoint" />
            <mxPoint x="280" y="375.8199999999999" as="targetPoint" />
            <mxPoint as="offset" />
          </mxGeometry>
        </mxCell>
      </root>
    </mxGraphModel>
  </diagram>
</mxfile>
